; NON-PLATED HOLES START AT T1
; THROUGH (PLATED) HOLES START AT T100
M48
INCH
T100C0.027559
T101C0.038492
T102C0.038000
T103C0.035433
T104C0.118110
T105C0.039370
T106C0.040000
T107C0.015748
T108C0.035000
T109C0.042000
T110C0.031497
%
T100
X009861Y010134
X009861Y015134
X027861Y010634
X025861Y010634
X028861Y010634
X026861Y010634
X029861Y010634
X027861Y007634
X025861Y007634
X028861Y007634
X026861Y007634
X009861Y018134
X015361Y010634
X030861Y010634
X029861Y007634
X018361Y010634
X016361Y010634
X014361Y010634
X031861Y010634
X019361Y010634
X017361Y010634
X015361Y007634
X009861Y011134
X030861Y007634
X018361Y007634
X016361Y007634
X014361Y007634
X009861Y016134
X031861Y007634
X019361Y007634
X017361Y007634
X009861Y008134
X020361Y010634
X020361Y007634
X009861Y017134
X009861Y009134
T101
X000861Y017134
X000861Y014134
X000861Y007134
X006861Y016134
X000861Y011134
X006861Y009134
X006861Y013134
X006861Y010134
X000861Y016134
X000861Y009134
X006861Y018134
X000861Y013134
X006861Y015134
X006861Y008134
X000861Y010134
X006861Y012134
X000861Y018134
X000861Y015134
X000861Y008134
X006861Y017134
X000861Y012134
X006861Y014134
X006861Y007134
X006861Y011134
T102
X020343Y018634
X024361Y003634
X026361Y003634
X028361Y003634
X025361Y003634
X027361Y003634
X029361Y003634
X006861Y021134
X024361Y001634
X026361Y001634
X028361Y001634
X031361Y003634
X025361Y001634
X027361Y001634
X029361Y001634
X030361Y003634
X032361Y003634
X031361Y001634
X013861Y001634
X015861Y001634
X017861Y001634
X024361Y004634
X026361Y004634
X028361Y004634
X030361Y001634
X012861Y001634
X014861Y001634
X016861Y001634
X018861Y001634
X025361Y004634
X027361Y004634
X029361Y004634
X024843Y018634
X019861Y001634
X025843Y018634
X027843Y018634
X029843Y018634
X026843Y018634
X028843Y018634
X031361Y004634
X013861Y004634
X015861Y004634
X017861Y004634
X006861Y020134
X030361Y004634
X032361Y004634
X012861Y004634
X014861Y004634
X016861Y004634
X018861Y004634
X013343Y018634
X015343Y018634
X017343Y018634
X019343Y018634
X019861Y004634
X030843Y018634
X014343Y018634
X016343Y018634
X018343Y018634
X031843Y018634
X020861Y004634
T103
X006099Y002947
X011500Y003947
T104
X031862Y020634
X022362Y002134
X003861Y020634
X003861Y008134
T105
X017861Y003634
X018861Y003634
X019861Y003634
X012861Y003634
X020861Y003634
X013861Y003634
X014861Y003634
X015861Y003634
X016861Y003634
T106
X004861Y005634
X000861Y005634
X002861Y003634
X002861Y001634
T107
X008861Y009134
X009361Y013634
X013861Y016134
X026880Y012616
X027361Y013134
X020361Y009623
X018361Y009134
X008861Y010134
X005861Y014634
X024861Y014634
X015861Y009134
X025861Y012134
T108
X030361Y012634
X028361Y012634
X029361Y012634
X031361Y012634
X022861Y019134
X030361Y015634
X028361Y015634
X029361Y015634
X022861Y015134
X031361Y015634
T109
X011361Y002634
X011361Y005614
T110
X000861Y020634
X001846Y020634
T00
M30
