G04 MADE WITH FRITZING*
G04 WWW.FRITZING.ORG*
G04 DOUBLE SIDED*
G04 HOLES PLATED*
G04 CONTOUR ON CENTER OF CONTOUR VECTOR*
%ASAXBY*%
%FSLAX23Y23*%
%MOIN*%
%OFA0B0*%
%SFA1.0B1.0*%
%ADD10C,0.085000*%
%ADD11C,0.090000*%
%ADD12C,0.049370*%
%ADD13C,0.085433*%
%ADD14C,0.088000*%
%ADD15C,0.082892*%
%ADD16C,0.077559*%
%ADD17C,0.206851*%
%ADD18C,0.092000*%
%ADD19C,0.089370*%
%ADD20C,0.072992*%
%ADD21C,0.030000*%
%ADD22C,0.025748*%
%LNMASK0*%
G90*
G70*
G54D10*
X2836Y1263D03*
X2836Y1563D03*
X2936Y1263D03*
X2936Y1563D03*
X3036Y1263D03*
X3036Y1563D03*
X3136Y1263D03*
X3136Y1563D03*
G54D11*
X286Y163D03*
X286Y363D03*
G54D12*
X2036Y962D03*
X1836Y913D03*
X1586Y913D03*
X2586Y1213D03*
X2736Y1313D03*
X2688Y1262D03*
X2486Y1463D03*
X1386Y1613D03*
X886Y1013D03*
X886Y913D03*
X586Y1463D03*
X936Y1363D03*
G54D13*
X1150Y395D03*
X610Y295D03*
G54D14*
X686Y2013D03*
X686Y2113D03*
G54D15*
X86Y1813D03*
X86Y1713D03*
X86Y1613D03*
X86Y1513D03*
X86Y1413D03*
X686Y913D03*
X686Y1013D03*
X686Y1113D03*
X86Y1313D03*
X86Y813D03*
X86Y713D03*
X86Y1213D03*
X86Y1113D03*
X86Y1013D03*
X86Y913D03*
X686Y713D03*
X686Y813D03*
X686Y1713D03*
X686Y1613D03*
X686Y1513D03*
X686Y1413D03*
X686Y1313D03*
X686Y1213D03*
X686Y1813D03*
G54D16*
X1436Y763D03*
X1436Y1063D03*
X1536Y763D03*
X1536Y1063D03*
X1636Y763D03*
X1636Y1063D03*
X1736Y763D03*
X1736Y1063D03*
X1836Y763D03*
X1836Y1063D03*
X1936Y763D03*
X1936Y1063D03*
X2036Y763D03*
X2036Y1063D03*
X2586Y763D03*
X2586Y1063D03*
X2686Y763D03*
X2686Y1063D03*
X2786Y763D03*
X2786Y1063D03*
X2886Y763D03*
X2886Y1063D03*
X2986Y763D03*
X2986Y1063D03*
X3086Y763D03*
X3086Y1063D03*
X3186Y763D03*
X3186Y1063D03*
G54D17*
X3186Y2063D03*
X2236Y213D03*
X386Y813D03*
X386Y2063D03*
G54D14*
X3136Y163D03*
X3036Y163D03*
X2936Y163D03*
X2836Y163D03*
X2736Y163D03*
X2636Y163D03*
X2536Y163D03*
X2436Y163D03*
X1986Y163D03*
X1886Y163D03*
X1786Y163D03*
X1686Y163D03*
X1586Y163D03*
X1486Y163D03*
X1386Y163D03*
X1286Y163D03*
G54D16*
X986Y1113D03*
X986Y1013D03*
X986Y913D03*
X986Y813D03*
X986Y1813D03*
X986Y1713D03*
X986Y1613D03*
X986Y1513D03*
G54D18*
X1136Y263D03*
X1136Y561D03*
G54D11*
X86Y563D03*
X486Y563D03*
G54D14*
X2034Y1863D03*
X1934Y1863D03*
X1834Y1863D03*
X1734Y1863D03*
X1634Y1863D03*
X1534Y1863D03*
X1434Y1863D03*
X1334Y1863D03*
X3184Y1863D03*
X3084Y1863D03*
X2984Y1863D03*
X2884Y1863D03*
X2784Y1863D03*
X2684Y1863D03*
X2584Y1863D03*
X2484Y1863D03*
G54D19*
X2086Y363D03*
X1986Y363D03*
X1886Y363D03*
X1786Y363D03*
X1686Y363D03*
X1586Y363D03*
X1486Y363D03*
X1386Y363D03*
X1286Y363D03*
G54D14*
X2086Y463D03*
X1986Y463D03*
X1886Y463D03*
X1786Y463D03*
X1686Y463D03*
X1586Y463D03*
X1486Y463D03*
X1386Y463D03*
X1286Y463D03*
X3236Y363D03*
X3136Y363D03*
X3036Y363D03*
X2936Y363D03*
X2836Y363D03*
X2736Y363D03*
X2636Y363D03*
X2536Y363D03*
X2436Y363D03*
X3236Y463D03*
X3136Y463D03*
X3036Y463D03*
X2936Y463D03*
X2836Y463D03*
X2736Y463D03*
X2636Y463D03*
X2536Y463D03*
X2436Y463D03*
G54D10*
X2286Y1913D03*
X2286Y1513D03*
G54D20*
X185Y2063D03*
X86Y2063D03*
G54D21*
G36*
X2809Y1291D02*
X2864Y1291D01*
X2864Y1236D01*
X2809Y1236D01*
X2809Y1291D01*
G37*
D02*
G36*
X256Y133D02*
X256Y193D01*
X316Y193D01*
X316Y133D01*
X256Y133D01*
G37*
D02*
G36*
X1412Y787D02*
X1460Y787D01*
X1460Y740D01*
X1412Y740D01*
X1412Y787D01*
G37*
D02*
G36*
X2562Y787D02*
X2610Y787D01*
X2610Y740D01*
X2562Y740D01*
X2562Y787D01*
G37*
D02*
G36*
X1105Y293D02*
X1167Y293D01*
X1167Y231D01*
X1105Y231D01*
X1105Y293D01*
G37*
D02*
G54D22*
G36*
X161Y2087D02*
X208Y2087D01*
X208Y2040D01*
X161Y2040D01*
X161Y2087D01*
G37*
D02*
G04 End of Mask0*
M02*